<?xml version="1.0" standalone="no"?>
<!DOCTYPE svg PUBLIC "-//W3C//DTD SVG 20010904//EN"
 "http://www.w3.org/TR/2001/REC-SVG-20010904/DTD/svg10.dtd">
<svg version="1.0" xmlns="http://www.w3.org/2000/svg"
 width="700.000000pt" height="700.000000pt" viewBox="0 0 700.000000 700.000000"
 preserveAspectRatio="xMidYMid meet">
<metadata>
Created by potrace 1.14, written by Peter Selinger 2001-2017
</metadata>
<g transform="translate(0.000000,700.000000) scale(0.100000,-0.100000)"
fill="#000000" stroke="none">
<path d="M3478 6566 c-1 -2 -52 -6 -113 -10 -60 -3 -121 -8 -135 -10 -14 -2
-59 -10 -100 -16 -156 -24 -375 -90 -518 -156 -41 -19 -75 -34 -77 -34 -23 0
-332 -197 -396 -252 -15 -13 -49 -42 -75 -64 -412 -350 -688 -884 -741 -1434
-9 -95 -8 -356 1 -435 32 -268 102 -535 219 -835 24 -63 59 -145 76 -183 17
-37 31 -69 31 -71 0 -8 160 -330 208 -421 61 -115 126 -228 198 -346 31 -52
71 -119 89 -149 76 -127 460 -688 537 -785 5 -5 25 -32 45 -60 21 -27 41 -54
45 -60 5 -5 63 -80 129 -165 113 -146 399 -492 471 -571 18 -20 54 -60 79 -89
l47 -53 23 24 c88 92 304 345 444 519 55 69 102 127 105 130 20 20 327 432
395 530 32 47 62 87 65 90 9 7 288 430 349 530 81 132 155 259 234 400 56 101
195 381 236 475 24 55 52 118 62 140 81 183 195 537 222 690 3 17 13 67 21
113 22 122 30 211 30 362 0 118 -8 262 -18 317 -2 10 -7 38 -11 63 -11 71 -62
268 -89 345 -158 450 -460 838 -856 1102 -66 44 -256 153 -266 153 -2 0 -23 9
-47 19 -144 66 -294 115 -464 150 -122 25 -153 29 -308 37 -66 3 -125 7 -132
9 -6 2 -13 2 -15 1z m132 -1619 c8 -2 31 -7 50 -11 45 -11 145 -60 188 -93
150 -114 236 -290 234 -477 -4 -407 -421 -683 -802 -530 -180 71 -320 245
-356 439 -15 82 -4 207 27 294 66 190 254 352 439 378 19 3 37 7 38 8 5 4 162
-2 182 -8z"/>
</g>
</svg>
